<svg width="31" height="27" viewBox="0 0 31 27" fill="none" xmlns="http://www.w3.org/2000/svg">
<rect width="31" height="27" fill="#FF7C53"/>
<path d="M14.932 21.252C17.47 21.252 19.612 19.83 19.612 17.382C19.612 15.636 18.46 14.52 16.948 14.106V14.016C18.37 13.458 19.18 12.414 19.18 10.974C19.18 8.688 17.434 7.428 14.86 7.428C13.294 7.428 12.016 8.058 10.864 9.066L12.214 10.686C13.006 9.966 13.78 9.516 14.734 9.498C15.868 9.516 16.516 10.128 16.516 11.172C16.516 12.36 15.724 13.206 13.276 13.206V15.114C16.174 15.114 16.948 15.924 16.948 17.238C16.948 18.426 16.03 19.092 14.68 19.092C13.474 19.092 12.502 18.498 11.71 17.724L10.468 19.398C11.404 20.46 12.826 21.252 14.932 21.252Z" fill="#FBF8F8"/>
</svg>
