<svg width="31" height="27" viewBox="0 0 31 27" fill="none" xmlns="http://www.w3.org/2000/svg">
<rect width="31" height="27" fill="#FF7C53"/>
<path d="M14.968 21.252C17.434 21.252 19.63 19.542 19.63 16.572C19.63 13.674 17.758 12.342 15.526 12.342C14.914 12.342 14.446 12.468 13.924 12.72L14.176 9.894H19.018V7.68H11.89L11.53 14.142L12.736 14.934C13.51 14.43 13.942 14.232 14.734 14.232C16.084 14.232 16.984 15.096 16.984 16.644C16.984 18.21 16.012 19.092 14.626 19.092C13.384 19.092 12.448 18.48 11.692 17.742L10.468 19.434C11.458 20.424 12.862 21.252 14.968 21.252Z" fill="#FBF8F8"/>
</svg>
