<svg width="12" height="12" viewBox="0 0 12 12" fill="none" xmlns="http://www.w3.org/2000/svg">
<path d="M9.16965 2.1125C8.26891 1.39181 7.14955 0.999431 5.99599 1C4.63617 1 3.36609 1.52388 2.41654 2.47523C1.49891 3.39575 0.996005 4.61115 1.00002 5.89664C1.00006 6.83911 1.27675 7.76085 1.79578 8.54752L1.80003 8.55355C1.80627 8.56271 1.81274 8.57185 1.81921 8.58078C1.8257 8.58971 1.83373 8.60132 1.83551 8.60422L1.84043 8.61315C1.86564 8.65779 1.88507 8.71225 1.86788 8.76716L1.45672 10.2551C1.44027 10.3104 1.43126 10.3677 1.42993 10.4254C1.42964 10.5772 1.48955 10.723 1.59655 10.8307C1.70354 10.9384 1.84888 10.9993 2.0007 11C2.08091 10.9973 2.15997 10.98 2.23395 10.9489L3.74042 10.4051L3.75939 10.3977C3.80036 10.3805 3.84441 10.3718 3.88885 10.3721C3.92983 10.3722 3.97045 10.3797 4.00872 10.3944C4.04488 10.4085 4.37323 10.5341 4.71966 10.631C5.0076 10.7114 5.6067 10.8319 6.07613 10.8319C7.4076 10.8319 8.65089 10.3163 9.57679 9.37966C10.4946 8.45021 11 7.21471 11 5.89932C11.0001 5.56166 10.9643 5.22495 10.8933 4.89486C10.6625 3.80959 10.0504 2.8212 9.16965 2.1125ZM3.85716 6.71427C3.71589 6.71427 3.57779 6.67238 3.46032 6.5939C3.34286 6.5154 3.25131 6.40386 3.19725 6.27333C3.14318 6.14281 3.12904 5.9992 3.15659 5.86064C3.18416 5.72207 3.25219 5.5948 3.35208 5.49492C3.45198 5.39502 3.57925 5.32699 3.71781 5.29943C3.85636 5.27187 3.99999 5.28602 4.1305 5.34007C4.26102 5.39413 4.37258 5.48569 4.45106 5.60316C4.52955 5.72062 4.57145 5.85872 4.57145 5.99999C4.57145 6.18943 4.49619 6.37111 4.36223 6.50506C4.22828 6.63901 4.04659 6.71427 3.85716 6.71427ZM6.00001 6.71427C5.85874 6.71427 5.72064 6.67238 5.60317 6.5939C5.48572 6.5154 5.39416 6.40386 5.3401 6.27333C5.28603 6.14281 5.27189 5.9992 5.29944 5.86064C5.32702 5.72207 5.39504 5.5948 5.49493 5.49492C5.59483 5.39502 5.7221 5.32699 5.86066 5.29943C5.99921 5.27187 6.14284 5.28602 6.27336 5.34007C6.40387 5.39413 6.51543 5.48569 6.59391 5.60316C6.6724 5.72062 6.7143 5.85872 6.7143 5.99999C6.7143 6.18943 6.63904 6.37111 6.50508 6.50506C6.37113 6.63901 6.18944 6.71427 6.00001 6.71427ZM8.14286 6.71427C8.00159 6.71427 7.86349 6.67238 7.74602 6.5939C7.62857 6.5154 7.53701 6.40386 7.48295 6.27333C7.42888 6.14281 7.41474 5.9992 7.4423 5.86064C7.46987 5.72207 7.53789 5.5948 7.63778 5.49492C7.73768 5.39502 7.86495 5.32699 8.00351 5.29943C8.14206 5.27187 8.28569 5.28602 8.41621 5.34007C8.54672 5.39413 8.65828 5.48569 8.73676 5.60316C8.81525 5.72062 8.85715 5.85872 8.85715 5.99999C8.85715 6.18943 8.78189 6.37111 8.64793 6.50506C8.51398 6.63901 8.33229 6.71427 8.14286 6.71427Z" fill="#2CB8B0" stroke="white" stroke-width="0.4"/>
</svg>
