<svg xmlns="http://www.w3.org/2000/svg" xmlns:xlink="http://www.w3.org/1999/xlink" viewBox="0 0 2344.44 251.31"><defs><style>.cls-1{fill:none;}.cls-2{font-size:173.49px;font-family:Corporate-Logo-Medium, Corporate Logo Medium;font-weight:500;}.cls-2,.cls-8{fill:#20b2aa;}.cls-3,.cls-4{fill:#4d4d4d;}.cls-4{font-size:149.79px;font-family:Toppan-BunkyuMidashiGoStd-EB-90ms-RKSJ-H, Toppan BunkyuMidashiGoStd;letter-spacing:-0.01em;}.cls-5{letter-spacing:-0.03em;}.cls-6{letter-spacing:-0.04em;}.cls-7{letter-spacing:-0.02em;}.cls-11,.cls-9{fill:#fff;}.cls-10{clip-path:url(#clip-path);}.cls-11{opacity:0.2;}</style><clipPath id="clip-path" transform="translate(34.01)"><path class="cls-1" d="M2.5,241.67c0-.24,0-.49,0-.73L2.94,72.07a7.49,7.49,0,0,1,2.48-5.5,8.74,8.74,0,0,1,5.94-2.28L119,64.55a8.25,8.25,0,0,1,8.34,7.09c0,.24,0,.49,0,.73l-.47,168.87a7.5,7.5,0,0,1-2.49,5.5,8.7,8.7,0,0,1-5.93,2.28l-107.67-.26a8.26,8.26,0,0,1-8.34-7.08Z"/></clipPath></defs><g id="Layer_2" data-name="Layer 2"><g id="Layer_1-2" data-name="Layer 1"><text class="cls-2" transform="translate(771.17 198.9)">クレジットカード<tspan class="cls-3" x="968.26" y="0">比較ナビ</tspan></text><text class="cls-4" transform="translate(196.05 194.54) scale(0.96 1)">お<tspan class="cls-5" x="148.29" y="0">す</tspan><tspan class="cls-6" x="293.44" y="0">す</tspan><tspan class="cls-7" x="437.54" y="0">め</tspan></text><path class="cls-8" d="M2.5,241.67c0-.24,0-.49,0-.73L2.94,72.07a7.49,7.49,0,0,1,2.48-5.5,8.74,8.74,0,0,1,5.94-2.28L119,64.55a8.25,8.25,0,0,1,8.34,7.09c0,.24,0,.49,0,.73l-.47,168.87a7.5,7.5,0,0,1-2.49,5.5,8.7,8.7,0,0,1-5.93,2.28l-107.67-.26a8.26,8.26,0,0,1-8.34-7.08Z" transform="translate(34.01)"/><path class="cls-9" d="M124.9,71.85a4.41,4.41,0,0,1,0,.52l-.47,168.86a5.74,5.74,0,0,1-5.95,5.49l-16.79,0-31.11-.07-59.76-.14a5.84,5.84,0,0,1-5.89-5c0-.17,0-.34,0-.52L5.41,72.08a5.73,5.73,0,0,1,5.94-5.49l59.76.14,31.11.08,16.79,0a5.81,5.81,0,0,1,5.89,5m4.92-.42c-.51-5.11-5.16-9.16-10.79-9.17l-16.79,0-31.12-.08L11.36,62C5.39,62,.48,66.52.47,72.07L0,240.93a7.72,7.72,0,0,0,.05,1c.5,5.11,5.16,9.15,10.79,9.16l59.76.15,31.11.07,16.79,0c6,0,10.88-4.51,10.9-10.07l.46-168.86a7.47,7.47,0,0,0,0-.95Z" transform="translate(34.01)"/><path class="cls-9" d="M50.22,97.53c0,.42.06.85.06,1.27a12.76,12.76,0,0,1-3.68,8.86l-3,3.06,2.94,3.07a12.69,12.69,0,0,1,3.56,7.6c0,.42.06.85.06,1.27,0,7.34-6.46,13.3-14.36,13.28a14.9,14.9,0,0,1-9.65-3.51,12.89,12.89,0,0,1-4.57-8.56,9,9,0,0,1-.06-1.27,12.74,12.74,0,0,1,3.67-8.87l3-3-2.94-3.07a12.75,12.75,0,0,1-3.57-7.6c0-.42-.06-.85-.06-1.28,0-7.33,6.46-13.29,14.36-13.27A15,15,0,0,1,45.65,89a13,13,0,0,1,4.57,8.56h0m4.91-.42C54.23,88,46,80.9,36,80.87c-10.63,0-19.28,8-19.31,17.85,0,.58,0,1.15.08,1.71a17.29,17.29,0,0,0,4.8,10.24,17.1,17.1,0,0,0-4.94,11.91,16.06,16.06,0,0,0,.08,1.71c.9,9.09,9.11,16.21,19.13,16.24,10.64,0,19.28-8,19.31-17.85,0-.58,0-1.15-.08-1.71a17.29,17.29,0,0,0-4.8-10.24,17.17,17.17,0,0,0,4.95-11.91,16,16,0,0,0-.09-1.71Z" transform="translate(34.01)"/><path class="cls-9" d="M42.5,234.83a1.62,1.62,0,0,1,0-.22l.21-76.17a2.48,2.48,0,0,1,4.94,0l-.21,76.17a2.49,2.49,0,0,1-4.93.21Z" transform="translate(34.01)"/><path class="cls-9" d="M23.4,177a1.7,1.7,0,0,1,0-.22l.05-18.36a2.48,2.48,0,0,1,4.94,0l-.05,18.36a2.39,2.39,0,0,1-2.48,2.29A2.42,2.42,0,0,1,23.4,177Z" transform="translate(34.01)"/><rect class="cls-9" x="2.24" y="141.86" width="182.17" height="31.11" transform="translate(285.01 64.52) rotate(90.16)"/><g class="cls-10"><polygon class="cls-11" points="19.02 191.89 0 144.61 167.47 86.46 186.49 133.74 19.02 191.89"/></g><path class="cls-8" d="M64.82,14a7,7,0,1,1,7-7A7,7,0,0,1,64.82,14Zm-28-2.9a5.59,5.59,0,0,1,5.53,5.62,5.53,5.53,0,0,1-5.53,5.62,5.63,5.63,0,0,1-5.71-5.62A5.68,5.68,0,0,1,36.83,11.14Zm56.15,0a5.58,5.58,0,0,1,5.53,5.62A5.52,5.52,0,0,1,93,22.38a5.62,5.62,0,0,1-5.7-5.62A5.68,5.68,0,0,1,93,11.14ZM43,49.93,38.32,24.48a8.54,8.54,0,0,0,3.77-1.93c2.9,2.63,6.58,5.18,10.09,5.18,4.21,0,7.64-6.5,10-11.94a8.55,8.55,0,0,0,2.63.53,8.55,8.55,0,0,0,2.63-.53c2.37,5.44,5.79,11.94,10,11.94,3.51,0,7.2-2.55,10.09-5.18a8.57,8.57,0,0,0,3.78,1.93L86.67,49.93Zm-1,2.19H87.63v4.3H42Z" transform="translate(34.01)"/></g></g></svg>