<svg xmlns="http://www.w3.org/2000/svg" xmlns:xlink="http://www.w3.org/1999/xlink" viewBox="0 0 1809.55 313.9"><defs><style>.cls-1,.cls-12{fill:none;}.cls-2,.cls-6{fill:#20b2aa;}.cls-3,.cls-5{fill:#fff;}.cls-4{clip-path:url(#clip-path);}.cls-5{opacity:0.2;}.cls-6{font-size:173.49px;font-family:Corporate-Logo-Medium, Corporate Logo Medium;font-weight:500;}.cls-7,.cls-8{fill:#4d4d4d;}.cls-8{font-size:100px;font-family:Toppan-BunkyuMidashiGoStd-EB-90ms-RKSJ-H, Toppan BunkyuMidashiGoStd;letter-spacing:-0.01em;}.cls-9{letter-spacing:-0.03em;}.cls-10{letter-spacing:-0.04em;}.cls-11{letter-spacing:-0.02em;}.cls-12{stroke:#20b2aa;stroke-linecap:round;stroke-miterlimit:10;stroke-width:4px;}</style><clipPath id="clip-path" transform="translate(34.01)"><path class="cls-1" d="M2.5,281.67c0-.24,0-.49,0-.73l.47-168.87a7.49,7.49,0,0,1,2.48-5.5,8.74,8.74,0,0,1,5.94-2.28l107.66.26a8.25,8.25,0,0,1,8.34,7.09c0,.24,0,.49,0,.73l-.47,168.87a7.5,7.5,0,0,1-2.49,5.5,8.7,8.7,0,0,1-5.93,2.28l-107.67-.26a8.26,8.26,0,0,1-8.34-7.08Z"/></clipPath></defs><g id="Layer_2" data-name="Layer 2"><g id="Layer_1-2" data-name="Layer 1"><path class="cls-2" d="M2.5,281.67c0-.24,0-.49,0-.73l.47-168.87a7.49,7.49,0,0,1,2.48-5.5,8.74,8.74,0,0,1,5.94-2.28l107.66.26a8.25,8.25,0,0,1,8.34,7.09c0,.24,0,.49,0,.73l-.47,168.87a7.5,7.5,0,0,1-2.49,5.5,8.7,8.7,0,0,1-5.93,2.28l-107.67-.26a8.26,8.26,0,0,1-8.34-7.08Z" transform="translate(34.01)"/><path class="cls-3" d="M124.9,111.85a4.41,4.41,0,0,1,0,.52l-.47,168.86a5.74,5.74,0,0,1-5.95,5.49l-16.79,0-31.11-.07-59.76-.14a5.84,5.84,0,0,1-5.89-5c0-.17,0-.34,0-.52l.47-168.86a5.73,5.73,0,0,1,5.94-5.49l59.76.14,31.11.08,16.79,0a5.81,5.81,0,0,1,5.89,5m4.92-.42c-.51-5.11-5.16-9.16-10.79-9.17l-16.79,0-31.12-.08L11.36,102c-6,0-10.88,4.52-10.89,10.07L0,280.93a7.72,7.72,0,0,0,.05,1c.5,5.11,5.16,9.15,10.79,9.16l59.76.15,31.11.07,16.79,0c6,0,10.88-4.51,10.9-10.07l.46-168.86a7.47,7.47,0,0,0,0-.95Z" transform="translate(34.01)"/><path class="cls-3" d="M50.22,137.53c0,.42.06.85.06,1.27a12.76,12.76,0,0,1-3.68,8.86l-3,3.06,2.94,3.07a12.69,12.69,0,0,1,3.56,7.6c0,.42.06.85.06,1.27,0,7.34-6.46,13.3-14.36,13.28a14.9,14.9,0,0,1-9.65-3.51,12.89,12.89,0,0,1-4.57-8.56,9,9,0,0,1-.06-1.27,12.74,12.74,0,0,1,3.67-8.87l3-3-2.94-3.07a12.75,12.75,0,0,1-3.57-7.6c0-.42-.06-.85-.06-1.28,0-7.33,6.46-13.29,14.36-13.27A15,15,0,0,1,45.65,129a13,13,0,0,1,4.57,8.56h0m4.91-.42C54.23,128,46,120.9,36,120.87c-10.63,0-19.28,8-19.31,17.85,0,.58,0,1.15.08,1.71a17.29,17.29,0,0,0,4.8,10.24,17.1,17.1,0,0,0-4.94,11.91,16.06,16.06,0,0,0,.08,1.71c.9,9.09,9.11,16.21,19.13,16.24,10.64,0,19.28-8,19.31-17.85,0-.58,0-1.15-.08-1.71a17.29,17.29,0,0,0-4.8-10.24,17.17,17.17,0,0,0,4.95-11.91,16,16,0,0,0-.09-1.71Z" transform="translate(34.01)"/><path class="cls-3" d="M42.5,274.83a1.62,1.62,0,0,1,0-.22l.21-76.17a2.48,2.48,0,0,1,4.94,0l-.21,76.17a2.49,2.49,0,0,1-4.93.21Z" transform="translate(34.01)"/><path class="cls-3" d="M23.4,217a1.7,1.7,0,0,1,0-.22l.05-18.36a2.48,2.48,0,0,1,4.94,0l-.05,18.36a2.39,2.39,0,0,1-2.48,2.29A2.42,2.42,0,0,1,23.4,217Z" transform="translate(34.01)"/><rect class="cls-3" x="2.24" y="181.86" width="182.17" height="31.11" transform="translate(325.01 104.63) rotate(90.16)"/><g class="cls-4"><polygon class="cls-5" points="19.02 231.89 0 184.61 167.47 126.46 186.49 173.74 19.02 231.89"/></g><text class="cls-6" transform="translate(228.17 272.9)">クレジットカード<tspan class="cls-7" x="968.26" y="0">比較ナビ</tspan></text><text class="cls-8" transform="translate(237.92 89.85) scale(0.96 1)">お<tspan class="cls-9" x="99" y="0">す</tspan><tspan class="cls-10" x="195.9" y="0">す</tspan><tspan class="cls-11" x="292.1" y="0">め</tspan></text><path class="cls-2" d="M64.82,23.5A11.75,11.75,0,1,1,76.57,11.75,11.79,11.79,0,0,1,64.82,23.5ZM18,18.65a9.4,9.4,0,1,1-9.55,9.4A9.5,9.5,0,0,1,18,18.65Zm94,0a9.4,9.4,0,1,1-9.55,9.4A9.5,9.5,0,0,1,112,18.65ZM28.25,83.55,20.47,41a14.44,14.44,0,0,0,6.32-3.23c4.84,4.4,11,8.66,16.88,8.66,7,0,12.78-10.86,16.74-20a14.71,14.71,0,0,0,4.41.88,14.65,14.65,0,0,0,4.4-.88c4,9.11,9.7,20,16.74,20,5.88,0,12.05-4.26,16.89-8.66A14.38,14.38,0,0,0,109.17,41l-7.79,42.58Zm-1.61,3.68H103v7.19H26.64Z" transform="translate(34.01)"/><line class="cls-12" x1="652.55" y1="51" x2="1807.55" y2="51"/></g></g></svg>